<svg id="Layer_1" data-name="Layer 1" xmlns="http://www.w3.org/2000/svg" viewBox="0 0 269 364.67"><defs><style>.cls-1{fill:#fe9867;}.cls-2{fill:#837cc2;}.cls-3{fill:#bfbaf0;}.cls-4{fill:#a9a3d3;}.cls-5{fill:#8b0975;}.cls-6{fill:#370c44;}.cls-7{fill:#380762;}.cls-8{fill:#ef3a65;}.cls-9{fill:#ff7261;}.cls-10{fill:#5e75c3;}.cls-11{fill:#6d85cf;}.cls-12{fill:#89c7de;}</style></defs><title>Artboard 2</title><rect class="cls-1" x="129.79" y="10.3" width="9.81" height="9.81"/><rect class="cls-1" x="257.25" y="196.58" width="9.8" height="9.8"/><rect class="cls-1" x="2.34" y="196.58" width="9.81" height="9.8"/><rect class="cls-2" x="247.44" y="235.79" width="9.81" height="9.81"/><rect class="cls-2" x="247.44" y="225.99" width="9.81" height="9.8"/><rect class="cls-2" x="257.25" y="225.99" width="9.8" height="9.8"/><rect class="cls-2" x="257.25" y="235.79" width="9.8" height="9.81"/><rect class="cls-2" x="257.25" y="216.19" width="9.8" height="9.8"/><rect class="cls-2" x="257.25" y="245.6" width="9.8" height="9.8"/><rect class="cls-2" x="257.25" y="206.38" width="9.8" height="9.81"/><rect class="cls-2" x="12.15" y="235.79" width="9.8" height="9.81"/><rect class="cls-2" x="12.15" y="225.99" width="9.8" height="9.8"/><rect class="cls-2" x="2.34" y="206.38" width="9.81" height="9.81"/><rect class="cls-2" x="2.34" y="235.79" width="9.81" height="9.81"/><rect class="cls-2" x="2.34" y="225.99" width="9.81" height="9.8"/><rect class="cls-2" x="2.34" y="216.19" width="9.81" height="9.8"/><rect class="cls-2" x="2.34" y="245.6" width="9.81" height="9.8"/><rect class="cls-2" x="257.25" y="294.62" width="9.8" height="9.8"/><rect class="cls-2" x="257.25" y="284.81" width="9.8" height="9.81"/><rect class="cls-2" x="257.25" y="275.01" width="9.8" height="9.8"/><rect class="cls-2" x="257.25" y="265.21" width="9.8" height="9.8"/><rect class="cls-2" x="257.25" y="255.4" width="9.8" height="9.81"/><rect class="cls-2" x="247.44" y="284.81" width="9.81" height="9.81"/><rect class="cls-3" x="247.44" y="275.01" width="9.81" height="9.8"/><rect class="cls-4" x="247.44" y="265.21" width="9.81" height="9.8"/><rect class="cls-2" x="247.44" y="255.4" width="9.81" height="9.81"/><rect class="cls-2" x="247.44" y="245.6" width="9.81" height="9.8"/><rect class="cls-2" x="237.64" y="284.81" width="9.8" height="9.81"/><rect class="cls-2" x="237.64" y="275.01" width="9.8" height="9.8"/><rect class="cls-4" x="237.64" y="265.21" width="9.8" height="9.8"/><rect class="cls-4" x="237.64" y="255.4" width="9.8" height="9.81"/><rect class="cls-2" x="237.64" y="245.6" width="9.8" height="9.8"/><rect class="cls-2" x="237.64" y="235.79" width="9.8" height="9.81"/><rect class="cls-2" x="227.83" y="275.01" width="9.81" height="9.8"/><rect class="cls-3" x="227.83" y="265.21" width="9.81" height="9.8"/><rect class="cls-4" x="227.83" y="255.4" width="9.81" height="9.81"/><rect class="cls-3" x="227.83" y="245.6" width="9.81" height="9.8"/><rect class="cls-2" x="227.83" y="235.79" width="9.81" height="9.81"/><rect class="cls-2" x="227.83" y="225.99" width="9.81" height="9.8"/><rect class="cls-2" x="227.83" y="216.19" width="9.81" height="9.8"/><rect class="cls-2" x="218.03" y="265.21" width="9.8" height="9.8"/><rect class="cls-4" x="218.03" y="255.4" width="9.8" height="9.81"/><rect class="cls-4" x="218.03" y="245.6" width="9.8" height="9.8"/><rect class="cls-3" x="218.03" y="235.79" width="9.8" height="9.81"/><rect class="cls-4" x="218.03" y="225.99" width="9.8" height="9.8"/><rect class="cls-2" x="218.03" y="216.19" width="9.8" height="9.8"/><rect class="cls-2" x="218.03" y="206.38" width="9.8" height="9.81"/><rect class="cls-2" x="208.23" y="255.4" width="9.8" height="9.81"/><rect class="cls-4" x="208.23" y="245.6" width="9.8" height="9.8"/><rect class="cls-4" x="208.23" y="235.79" width="9.8" height="9.81"/><rect class="cls-4" x="208.23" y="225.99" width="9.8" height="9.8"/><rect class="cls-3" x="208.23" y="216.19" width="9.8" height="9.8"/><rect class="cls-2" x="208.23" y="206.38" width="9.8" height="9.81"/><rect class="cls-2" x="208.23" y="196.58" width="9.8" height="9.8"/><rect class="cls-2" x="198.42" y="255.4" width="9.81" height="9.81"/><rect class="cls-3" x="198.42" y="245.6" width="9.81" height="9.8"/><rect class="cls-4" x="198.42" y="235.79" width="9.81" height="9.81"/><rect class="cls-4" x="198.42" y="225.99" width="9.81" height="9.8"/><rect class="cls-4" x="198.42" y="216.19" width="9.81" height="9.8"/><rect class="cls-4" x="198.42" y="206.38" width="9.81" height="9.81"/><rect class="cls-2" x="198.42" y="196.58" width="9.81" height="9.8"/><rect class="cls-2" x="198.42" y="186.77" width="9.81" height="9.81"/><rect class="cls-2" x="198.42" y="176.97" width="9.81" height="9.8"/><rect class="cls-2" x="188.62" y="245.6" width="9.8" height="9.8"/><rect class="cls-3" x="188.62" y="235.79" width="9.8" height="9.81"/><rect class="cls-4" x="188.62" y="225.99" width="9.8" height="9.8"/><rect class="cls-3" x="188.62" y="216.19" width="9.8" height="9.8"/><rect class="cls-4" x="188.62" y="206.38" width="9.8" height="9.81"/><rect class="cls-4" x="188.62" y="196.58" width="9.8" height="9.8"/><rect class="cls-4" x="188.62" y="186.77" width="9.8" height="9.81"/><rect class="cls-2" x="188.62" y="176.97" width="9.8" height="9.8"/><rect class="cls-2" x="188.62" y="167.17" width="9.8" height="9.8"/><rect class="cls-2" x="178.81" y="245.6" width="9.81" height="9.8"/><rect class="cls-3" x="178.81" y="235.79" width="9.81" height="9.81"/><rect class="cls-4" x="178.81" y="225.99" width="9.81" height="9.8"/><rect class="cls-4" x="178.81" y="216.19" width="9.81" height="9.8"/><rect class="cls-4" x="178.81" y="206.38" width="9.81" height="9.81"/><rect class="cls-4" x="178.81" y="196.58" width="9.81" height="9.8"/><rect class="cls-4" x="178.81" y="186.77" width="9.81" height="9.81"/><rect class="cls-4" x="178.81" y="176.97" width="9.81" height="9.8"/><rect class="cls-2" x="178.81" y="167.17" width="9.81" height="9.8"/><rect class="cls-2" x="178.81" y="157.36" width="9.81" height="9.81"/><rect class="cls-2" x="178.81" y="147.56" width="9.81" height="9.8"/><rect class="cls-5" x="169.01" y="294.62" width="9.8" height="9.8"/><rect class="cls-5" x="169.01" y="284.81" width="9.8" height="9.81"/><rect class="cls-5" x="169.01" y="275.01" width="9.8" height="9.8"/><rect class="cls-2" x="169.01" y="255.4" width="9.8" height="9.81"/><rect class="cls-2" x="169.01" y="245.6" width="9.8" height="9.8"/><rect class="cls-2" x="169.01" y="235.79" width="9.8" height="9.81"/><rect class="cls-2" x="169.01" y="225.99" width="9.8" height="9.8"/><rect class="cls-2" x="169.01" y="216.19" width="9.8" height="9.8"/><rect class="cls-2" x="169.01" y="206.38" width="9.8" height="9.81"/><rect class="cls-2" x="169.01" y="196.58" width="9.8" height="9.8"/><rect class="cls-2" x="169.01" y="186.77" width="9.8" height="9.81"/><rect class="cls-2" x="169.01" y="176.97" width="9.8" height="9.8"/><rect class="cls-2" x="169.01" y="167.17" width="9.8" height="9.8"/><rect class="cls-2" x="169.01" y="157.36" width="9.8" height="9.81"/><rect class="cls-2" x="169.01" y="147.56" width="9.8" height="9.8"/><rect class="cls-2" x="169.01" y="137.75" width="9.8" height="9.81"/><rect class="cls-2" x="169.01" y="127.95" width="9.8" height="9.8"/><rect class="cls-6" x="159.21" y="324.03" width="9.8" height="9.8"/><rect class="cls-7" x="159.21" y="314.23" width="9.8" height="9.8"/><rect class="cls-5" x="159.21" y="304.42" width="9.8" height="9.81"/><rect class="cls-5" x="159.21" y="294.62" width="9.8" height="9.8"/><rect class="cls-5" x="159.21" y="284.81" width="9.8" height="9.81"/><rect class="cls-2" x="159.21" y="255.4" width="9.8" height="9.81"/><rect class="cls-4" x="159.21" y="245.6" width="9.8" height="9.8"/><rect class="cls-4" x="159.21" y="235.79" width="9.8" height="9.81"/><rect class="cls-4" x="159.21" y="225.99" width="9.8" height="9.8"/><rect class="cls-4" x="159.21" y="216.19" width="9.8" height="9.8"/><rect class="cls-4" x="159.21" y="206.38" width="9.8" height="9.81"/><rect class="cls-4" x="159.21" y="196.58" width="9.8" height="9.8"/><rect class="cls-3" x="159.21" y="186.77" width="9.8" height="9.81"/><rect class="cls-3" x="159.21" y="176.97" width="9.8" height="9.8"/><rect class="cls-3" x="159.21" y="167.17" width="9.8" height="9.8"/><rect class="cls-3" x="159.21" y="157.36" width="9.8" height="9.81"/><rect class="cls-3" x="159.21" y="147.56" width="9.8" height="9.8"/><rect class="cls-3" x="159.21" y="137.75" width="9.8" height="9.81"/><rect class="cls-3" x="159.21" y="127.95" width="9.8" height="9.8"/><rect class="cls-2" x="159.21" y="118.15" width="9.8" height="9.8"/><rect class="cls-2" x="159.21" y="108.34" width="9.8" height="9.81"/><rect class="cls-6" x="149.4" y="333.83" width="9.81" height="9.81"/><rect class="cls-7" x="149.4" y="324.03" width="9.81" height="9.8"/><rect class="cls-5" x="149.4" y="314.23" width="9.81" height="9.8"/><rect class="cls-8" x="149.4" y="304.42" width="9.81" height="9.81"/><rect class="cls-8" x="149.4" y="294.62" width="9.81" height="9.8"/><rect class="cls-2" x="149.4" y="265.21" width="9.81" height="9.8"/><rect class="cls-4" x="149.4" y="255.4" width="9.81" height="9.81"/><rect class="cls-4" x="149.4" y="245.6" width="9.81" height="9.8"/><rect class="cls-4" x="149.4" y="235.79" width="9.81" height="9.81"/><rect class="cls-4" x="149.4" y="225.99" width="9.81" height="9.8"/><rect class="cls-4" x="149.4" y="216.19" width="9.81" height="9.8"/><rect class="cls-4" x="149.4" y="206.38" width="9.81" height="9.81"/><rect class="cls-4" x="149.4" y="196.58" width="9.81" height="9.8"/><rect class="cls-4" x="149.4" y="186.77" width="9.81" height="9.81"/><rect class="cls-4" x="149.4" y="176.97" width="9.81" height="9.8"/><rect class="cls-4" x="149.4" y="167.17" width="9.81" height="9.8"/><rect class="cls-4" x="149.4" y="157.36" width="9.81" height="9.81"/><rect class="cls-4" x="149.4" y="147.56" width="9.81" height="9.8"/><rect class="cls-4" x="149.4" y="137.75" width="9.81" height="9.81"/><rect class="cls-3" x="149.4" y="127.95" width="9.81" height="9.8"/><rect class="cls-3" x="149.4" y="118.15" width="9.81" height="9.8"/><rect class="cls-3" x="149.4" y="108.34" width="9.81" height="9.81"/><rect class="cls-2" x="149.4" y="98.54" width="9.81" height="9.8"/><rect class="cls-2" x="149.4" y="88.74" width="9.81" height="9.8"/><rect class="cls-2" x="149.4" y="78.93" width="9.81" height="9.81"/><rect class="cls-2" x="149.4" y="69.13" width="9.81" height="9.8"/><rect class="cls-2" x="149.4" y="59.32" width="9.81" height="9.81"/><rect class="cls-6" x="139.6" y="343.64" width="9.8" height="9.8"/><rect class="cls-7" x="139.6" y="333.83" width="9.8" height="9.81"/><rect class="cls-5" x="139.6" y="324.03" width="9.8" height="9.8"/><rect class="cls-8" x="139.6" y="314.23" width="9.8" height="9.8"/><rect class="cls-9" x="139.6" y="304.42" width="9.8" height="9.81"/><rect class="cls-1" x="139.6" y="294.62" width="9.8" height="9.8"/><rect class="cls-2" x="139.6" y="275.01" width="9.8" height="9.8"/><rect class="cls-4" x="139.6" y="265.21" width="9.8" height="9.8"/><rect class="cls-4" x="139.6" y="255.4" width="9.8" height="9.81"/><rect class="cls-4" x="139.6" y="245.6" width="9.8" height="9.8"/><rect class="cls-4" x="139.6" y="235.79" width="9.8" height="9.81"/><rect class="cls-4" x="139.6" y="225.99" width="9.8" height="9.8"/><rect class="cls-4" x="139.6" y="216.19" width="9.8" height="9.8"/><rect class="cls-10" x="139.6" y="206.38" width="9.8" height="9.81"/><rect class="cls-11" x="139.6" y="196.58" width="9.8" height="9.8"/><rect class="cls-10" x="139.6" y="186.77" width="9.8" height="9.81"/><rect class="cls-10" x="139.6" y="176.97" width="9.8" height="9.8"/><rect class="cls-10" x="139.6" y="167.17" width="9.8" height="9.8"/><rect class="cls-10" x="139.6" y="157.36" width="9.8" height="9.81"/><rect class="cls-10" x="139.6" y="147.56" width="9.8" height="9.8"/><rect class="cls-12" x="139.6" y="137.75" width="9.8" height="9.81"/><rect class="cls-4" x="139.6" y="127.95" width="9.8" height="9.8"/><rect class="cls-3" x="139.6" y="118.15" width="9.8" height="9.8"/><rect class="cls-3" x="139.6" y="108.34" width="9.8" height="9.81"/><rect class="cls-3" x="139.6" y="98.54" width="9.8" height="9.8"/><rect class="cls-3" x="139.6" y="88.74" width="9.8" height="9.8"/><rect class="cls-3" x="139.6" y="78.93" width="9.8" height="9.81"/><rect class="cls-3" x="139.6" y="69.13" width="9.8" height="9.8"/><rect class="cls-3" x="139.6" y="59.32" width="9.8" height="9.81"/><rect class="cls-2" x="139.6" y="49.52" width="9.8" height="9.8"/><rect class="cls-2" x="139.6" y="39.72" width="9.8" height="9.8"/><rect class="cls-6" x="129.79" y="353.44" width="9.81" height="9.81"/><rect class="cls-7" x="129.79" y="343.64" width="9.81" height="9.8"/><rect class="cls-5" x="129.79" y="333.83" width="9.81" height="9.81"/><rect class="cls-8" x="129.79" y="324.03" width="9.81" height="9.8"/><rect class="cls-9" x="129.79" y="314.23" width="9.81" height="9.8"/><rect class="cls-1" x="129.79" y="304.42" width="9.81" height="9.81"/><rect class="cls-1" x="129.79" y="294.62" width="9.81" height="9.8"/><rect class="cls-2" x="129.79" y="275.01" width="9.81" height="9.8"/><rect class="cls-4" x="129.79" y="265.21" width="9.81" height="9.8"/><rect class="cls-4" x="129.79" y="255.4" width="9.81" height="9.81"/><rect class="cls-3" x="129.79" y="245.6" width="9.81" height="9.8"/><rect class="cls-3" x="129.79" y="235.79" width="9.81" height="9.81"/><rect class="cls-4" x="129.79" y="225.99" width="9.81" height="9.8"/><rect class="cls-10" x="129.79" y="216.19" width="9.81" height="9.8"/><rect class="cls-11" x="129.79" y="206.38" width="9.81" height="9.81"/><rect class="cls-11" x="129.79" y="196.58" width="9.81" height="9.8"/><rect class="cls-11" x="129.79" y="186.77" width="9.81" height="9.81"/><rect class="cls-11" x="129.79" y="176.97" width="9.81" height="9.8"/><rect class="cls-12" x="129.79" y="167.17" width="9.81" height="9.8"/><rect class="cls-12" x="129.79" y="157.36" width="9.81" height="9.81"/><rect class="cls-12" x="129.79" y="147.56" width="9.81" height="9.8"/><rect class="cls-12" x="129.79" y="137.75" width="9.81" height="9.81"/><rect class="cls-12" x="129.79" y="127.95" width="9.81" height="9.8"/><rect class="cls-4" x="129.79" y="118.15" width="9.81" height="9.8"/><rect class="cls-3" x="129.79" y="108.34" width="9.81" height="9.81"/><rect class="cls-3" x="129.79" y="98.54" width="9.81" height="9.8"/><rect class="cls-3" x="129.79" y="88.74" width="9.81" height="9.8"/><rect class="cls-3" x="129.79" y="78.93" width="9.81" height="9.81"/><rect class="cls-3" x="129.79" y="69.13" width="9.81" height="9.8"/><rect class="cls-3" x="129.79" y="59.32" width="9.81" height="9.81"/><rect class="cls-3" x="129.79" y="49.52" width="9.81" height="9.8"/><rect class="cls-3" x="129.79" y="39.72" width="9.81" height="9.8"/><rect class="cls-2" x="129.79" y="29.91" width="9.81" height="9.81"/><rect class="cls-2" x="129.79" y="20.11" width="9.81" height="9.8"/><rect class="cls-6" x="119.99" y="343.64" width="9.8" height="9.8"/><rect class="cls-7" x="119.99" y="333.83" width="9.8" height="9.81"/><rect class="cls-5" x="119.99" y="324.03" width="9.8" height="9.8"/><rect class="cls-8" x="119.99" y="314.23" width="9.8" height="9.8"/><rect class="cls-9" x="119.99" y="304.42" width="9.8" height="9.81"/><rect class="cls-1" x="119.99" y="294.62" width="9.8" height="9.8"/><rect class="cls-2" x="119.99" y="275.01" width="9.8" height="9.8"/><rect class="cls-4" x="119.99" y="265.21" width="9.8" height="9.8"/><rect class="cls-3" x="119.99" y="255.4" width="9.8" height="9.81"/><rect class="cls-3" x="119.99" y="245.6" width="9.8" height="9.8"/><rect class="cls-3" x="119.99" y="235.79" width="9.8" height="9.81"/><rect class="cls-4" x="119.99" y="225.99" width="9.8" height="9.8"/><rect class="cls-4" x="119.99" y="216.19" width="9.8" height="9.8"/><rect class="cls-12" x="119.99" y="206.38" width="9.8" height="9.81"/><rect class="cls-12" x="119.99" y="196.58" width="9.8" height="9.8"/><rect class="cls-12" x="119.99" y="186.77" width="9.8" height="9.81"/><rect class="cls-12" x="119.99" y="176.97" width="9.8" height="9.8"/><rect class="cls-12" x="119.99" y="167.17" width="9.8" height="9.8"/><rect class="cls-12" x="119.99" y="157.36" width="9.8" height="9.81"/><rect class="cls-12" x="119.99" y="147.56" width="9.8" height="9.8"/><rect class="cls-12" x="119.99" y="137.75" width="9.8" height="9.81"/><rect class="cls-4" x="119.99" y="127.95" width="9.8" height="9.8"/><rect class="cls-3" x="119.99" y="118.15" width="9.8" height="9.8"/><rect class="cls-3" x="119.99" y="108.34" width="9.8" height="9.81"/><rect class="cls-3" x="119.99" y="98.54" width="9.8" height="9.8"/><rect class="cls-3" x="119.99" y="88.74" width="9.8" height="9.8"/><rect class="cls-3" x="119.99" y="78.93" width="9.8" height="9.81"/><rect class="cls-3" x="119.99" y="69.13" width="9.8" height="9.8"/><rect class="cls-3" x="119.99" y="59.32" width="9.8" height="9.81"/><rect class="cls-2" x="119.99" y="49.52" width="9.8" height="9.8"/><rect class="cls-2" x="119.99" y="39.72" width="9.8" height="9.8"/><rect class="cls-6" x="110.19" y="333.83" width="9.8" height="9.81"/><rect class="cls-7" x="110.19" y="324.03" width="9.8" height="9.8"/><rect class="cls-5" x="110.19" y="314.23" width="9.8" height="9.8"/><rect class="cls-8" x="110.19" y="304.42" width="9.8" height="9.81"/><rect class="cls-8" x="110.19" y="294.62" width="9.8" height="9.8"/><rect class="cls-2" x="110.19" y="265.21" width="9.8" height="9.8"/><rect class="cls-3" x="110.19" y="255.4" width="9.8" height="9.81"/><rect class="cls-3" x="110.19" y="245.6" width="9.8" height="9.8"/><rect class="cls-3" x="110.19" y="235.79" width="9.8" height="9.81"/><rect class="cls-3" x="110.19" y="225.99" width="9.8" height="9.8"/><rect class="cls-4" x="110.19" y="216.19" width="9.8" height="9.8"/><rect class="cls-4" x="110.19" y="206.38" width="9.8" height="9.81"/><rect class="cls-4" x="110.19" y="196.58" width="9.8" height="9.8"/><rect class="cls-4" x="110.19" y="186.77" width="9.8" height="9.81"/><rect class="cls-4" x="110.19" y="176.97" width="9.8" height="9.8"/><rect class="cls-4" x="110.19" y="167.17" width="9.8" height="9.8"/><rect class="cls-4" x="110.19" y="157.36" width="9.8" height="9.81"/><rect class="cls-4" x="110.19" y="147.56" width="9.8" height="9.8"/><rect class="cls-4" x="110.19" y="137.75" width="9.8" height="9.81"/><rect class="cls-3" x="110.19" y="127.95" width="9.8" height="9.8"/><rect class="cls-3" x="110.19" y="118.15" width="9.8" height="9.8"/><rect class="cls-3" x="110.19" y="108.34" width="9.8" height="9.81"/><rect class="cls-2" x="110.19" y="98.54" width="9.8" height="9.8"/><rect class="cls-2" x="110.19" y="88.74" width="9.8" height="9.8"/><rect class="cls-2" x="110.19" y="78.93" width="9.8" height="9.81"/><rect class="cls-2" x="110.19" y="69.13" width="9.8" height="9.8"/><rect class="cls-2" x="110.19" y="59.32" width="9.8" height="9.81"/><rect class="cls-6" x="100.38" y="324.03" width="9.81" height="9.8"/><rect class="cls-7" x="100.38" y="314.23" width="9.81" height="9.8"/><rect class="cls-5" x="100.38" y="304.42" width="9.81" height="9.81"/><rect class="cls-5" x="100.38" y="294.62" width="9.81" height="9.8"/><rect class="cls-5" x="100.38" y="284.81" width="9.81" height="9.81"/><rect class="cls-2" x="100.38" y="255.4" width="9.81" height="9.81"/><rect class="cls-3" x="100.38" y="245.6" width="9.81" height="9.8"/><rect class="cls-3" x="100.38" y="235.79" width="9.81" height="9.81"/><rect class="cls-3" x="100.38" y="225.99" width="9.81" height="9.8"/><rect class="cls-3" x="100.38" y="216.19" width="9.81" height="9.8"/><rect class="cls-3" x="100.38" y="206.38" width="9.81" height="9.81"/><rect class="cls-3" x="100.38" y="196.58" width="9.81" height="9.8"/><rect class="cls-3" x="100.38" y="186.77" width="9.81" height="9.81"/><rect class="cls-3" x="100.38" y="176.97" width="9.81" height="9.8"/><rect class="cls-3" x="100.38" y="167.17" width="9.81" height="9.8"/><rect class="cls-3" x="100.38" y="157.36" width="9.81" height="9.81"/><rect class="cls-3" x="100.38" y="147.56" width="9.81" height="9.8"/><rect class="cls-3" x="100.38" y="137.75" width="9.81" height="9.81"/><rect class="cls-3" x="100.38" y="127.95" width="9.81" height="9.8"/><rect class="cls-2" x="100.38" y="118.15" width="9.81" height="9.8"/><rect class="cls-2" x="100.38" y="108.34" width="9.81" height="9.81"/><rect class="cls-5" x="90.58" y="294.62" width="9.8" height="9.8"/><rect class="cls-5" x="90.58" y="284.81" width="9.8" height="9.81"/><rect class="cls-5" x="90.58" y="275.01" width="9.8" height="9.8"/><rect class="cls-2" x="90.58" y="255.4" width="9.8" height="9.81"/><rect class="cls-2" x="90.58" y="245.6" width="9.8" height="9.8"/><rect class="cls-2" x="90.58" y="235.79" width="9.8" height="9.81"/><rect class="cls-2" x="90.58" y="225.99" width="9.8" height="9.8"/><rect class="cls-2" x="90.58" y="216.19" width="9.8" height="9.8"/><rect class="cls-2" x="90.58" y="206.38" width="9.8" height="9.81"/><rect class="cls-2" x="90.58" y="196.58" width="9.8" height="9.8"/><rect class="cls-2" x="90.58" y="186.77" width="9.8" height="9.81"/><rect class="cls-2" x="90.58" y="176.97" width="9.8" height="9.8"/><rect class="cls-2" x="90.58" y="167.17" width="9.8" height="9.8"/><rect class="cls-2" x="90.58" y="157.36" width="9.8" height="9.81"/><rect class="cls-2" x="90.58" y="147.56" width="9.8" height="9.8"/><rect class="cls-2" x="90.58" y="137.75" width="9.8" height="9.81"/><rect class="cls-2" x="90.58" y="127.95" width="9.8" height="9.8"/><rect class="cls-2" x="80.77" y="245.6" width="9.81" height="9.8"/><rect class="cls-3" x="80.77" y="235.79" width="9.81" height="9.81"/><rect class="cls-3" x="80.77" y="225.99" width="9.81" height="9.8"/><rect class="cls-3" x="80.77" y="216.19" width="9.81" height="9.8"/><rect class="cls-3" x="80.77" y="206.38" width="9.81" height="9.81"/><rect class="cls-3" x="80.77" y="196.58" width="9.81" height="9.8"/><rect class="cls-3" x="80.77" y="186.77" width="9.81" height="9.81"/><rect class="cls-3" x="80.77" y="176.97" width="9.81" height="9.8"/><rect class="cls-2" x="80.77" y="167.17" width="9.81" height="9.8"/><rect class="cls-2" x="80.77" y="157.36" width="9.81" height="9.81"/><rect class="cls-2" x="80.77" y="147.56" width="9.81" height="9.8"/><rect class="cls-2" x="70.97" y="245.6" width="9.8" height="9.8"/><rect class="cls-3" x="70.97" y="235.79" width="9.8" height="9.81"/><rect class="cls-3" x="70.97" y="225.99" width="9.8" height="9.8"/><rect class="cls-3" x="70.97" y="216.19" width="9.8" height="9.8"/><rect class="cls-3" x="70.97" y="206.38" width="9.8" height="9.81"/><rect class="cls-3" x="70.97" y="196.58" width="9.8" height="9.8"/><rect class="cls-3" x="70.97" y="186.77" width="9.8" height="9.81"/><rect class="cls-2" x="70.97" y="176.97" width="9.8" height="9.8"/><rect class="cls-2" x="70.97" y="167.17" width="9.8" height="9.8"/><rect class="cls-2" x="61.17" y="255.4" width="9.8" height="9.81"/><rect class="cls-3" x="61.17" y="245.6" width="9.8" height="9.8"/><rect class="cls-3" x="61.17" y="235.79" width="9.8" height="9.81"/><rect class="cls-3" x="61.17" y="225.99" width="9.8" height="9.8"/><rect class="cls-3" x="61.17" y="216.19" width="9.8" height="9.8"/><rect class="cls-3" x="61.17" y="206.38" width="9.8" height="9.81"/><rect class="cls-2" x="61.17" y="196.58" width="9.8" height="9.8"/><rect class="cls-2" x="61.17" y="186.77" width="9.8" height="9.81"/><rect class="cls-2" x="61.17" y="176.97" width="9.8" height="9.8"/><rect class="cls-2" x="51.36" y="255.4" width="9.81" height="9.81"/><rect class="cls-3" x="51.36" y="245.6" width="9.81" height="9.8"/><rect class="cls-3" x="51.36" y="235.79" width="9.81" height="9.81"/><rect class="cls-3" x="51.36" y="225.99" width="9.81" height="9.8"/><rect class="cls-3" x="51.36" y="216.19" width="9.81" height="9.8"/><rect class="cls-2" x="51.36" y="206.38" width="9.81" height="9.81"/><rect class="cls-2" x="51.36" y="196.58" width="9.81" height="9.8"/><rect class="cls-2" x="41.56" y="265.21" width="9.8" height="9.8"/><rect class="cls-3" x="41.56" y="255.4" width="9.8" height="9.81"/><rect class="cls-3" x="41.56" y="245.6" width="9.8" height="9.8"/><rect class="cls-3" x="41.56" y="235.79" width="9.8" height="9.81"/><rect class="cls-3" x="41.56" y="225.99" width="9.8" height="9.8"/><rect class="cls-2" x="41.56" y="216.19" width="9.8" height="9.8"/><rect class="cls-2" x="41.56" y="206.38" width="9.8" height="9.81"/><rect class="cls-2" x="31.75" y="275.01" width="9.81" height="9.8"/><rect class="cls-3" x="31.75" y="265.21" width="9.81" height="9.8"/><rect class="cls-3" x="31.75" y="255.4" width="9.81" height="9.81"/><rect class="cls-3" x="31.75" y="245.6" width="9.81" height="9.8"/><rect class="cls-2" x="31.75" y="235.79" width="9.81" height="9.81"/><rect class="cls-2" x="31.75" y="225.99" width="9.81" height="9.8"/><rect class="cls-2" x="31.75" y="216.19" width="9.81" height="9.8"/><rect class="cls-2" x="21.95" y="284.81" width="9.8" height="9.81"/><rect class="cls-2" x="21.95" y="275.01" width="9.8" height="9.8"/><rect class="cls-3" x="21.95" y="265.21" width="9.8" height="9.8"/><rect class="cls-3" x="21.95" y="255.4" width="9.8" height="9.81"/><rect class="cls-2" x="21.95" y="245.6" width="9.8" height="9.8"/><rect class="cls-2" x="21.95" y="235.79" width="9.8" height="9.81"/><rect class="cls-2" x="12.15" y="284.81" width="9.8" height="9.81"/><rect class="cls-3" x="12.15" y="275.01" width="9.8" height="9.8"/><rect class="cls-3" x="12.15" y="265.21" width="9.8" height="9.8"/><rect class="cls-2" x="12.15" y="255.4" width="9.8" height="9.81"/><rect class="cls-2" x="12.15" y="245.6" width="9.8" height="9.8"/><rect class="cls-2" x="2.34" y="294.62" width="9.81" height="9.8"/><rect class="cls-2" x="2.34" y="284.81" width="9.81" height="9.81"/><rect class="cls-2" x="2.34" y="275.01" width="9.81" height="9.8"/><rect class="cls-2" x="2.34" y="265.21" width="9.81" height="9.8"/><rect class="cls-2" x="2.34" y="255.4" width="9.81" height="9.81"/></svg>