<svg id="Layer_1" data-name="Layer 1" xmlns="http://www.w3.org/2000/svg" viewBox="0 0 156 146"><title>Artboard 3</title><rect x="92.99" y="53.64" width="9.8" height="9.8"/><rect x="102.79" y="53.64" width="9.81" height="9.8"/><rect x="102.79" y="43.83" width="9.81" height="9.81"/><rect x="112.6" y="43.83" width="9.8" height="9.81"/><rect x="112.6" y="34.03" width="9.8" height="9.8"/><rect x="142.01" y="43.83" width="9.8" height="9.81"/><rect x="142.01" y="53.64" width="9.8" height="9.8"/><rect x="142.01" y="24.23" width="9.8" height="9.8"/><rect x="142.01" y="34.03" width="9.8" height="9.8"/><rect x="132.21" y="14.42" width="9.8" height="9.81"/><rect x="83.19" y="4.62" width="9.8" height="9.8"/><rect x="122.4" y="4.62" width="9.81" height="9.8"/><rect x="112.6" y="4.62" width="9.8" height="9.8"/><rect x="102.79" y="4.62" width="9.81" height="9.8"/><rect x="92.99" y="4.62" width="9.8" height="9.8"/><rect x="142.01" y="63.44" width="9.8" height="9.81"/><rect x="132.21" y="63.44" width="9.8" height="9.81"/><rect x="132.21" y="73.25" width="9.8" height="9.8"/><rect x="122.4" y="73.25" width="9.81" height="9.8"/><rect x="122.4" y="83.05" width="9.81" height="9.8"/><rect x="112.6" y="83.05" width="9.8" height="9.8"/><rect x="112.6" y="92.85" width="9.8" height="9.81"/><rect x="102.79" y="92.85" width="9.81" height="9.81"/><rect x="102.79" y="102.66" width="9.81" height="9.8"/><rect x="92.99" y="102.66" width="9.8" height="9.8"/><rect x="92.99" y="112.46" width="9.8" height="9.8"/><rect x="83.19" y="112.46" width="9.8" height="9.8"/><rect x="83.19" y="122.26" width="9.8" height="9.81"/><rect x="73.38" y="132.07" width="9.81" height="9.8"/><rect x="73.38" y="122.26" width="9.81" height="9.81"/><rect x="63.58" y="122.26" width="9.8" height="9.81"/><rect x="63.58" y="112.46" width="9.8" height="9.8"/><rect x="53.77" y="112.46" width="9.81" height="9.8"/><rect x="53.77" y="102.66" width="9.81" height="9.8"/><rect x="43.97" y="102.66" width="9.8" height="9.8"/><rect x="73.38" y="24.23" width="9.81" height="9.8"/><rect x="83.19" y="14.42" width="9.8" height="9.81"/><rect x="73.38" y="14.42" width="9.81" height="9.81"/><rect x="63.58" y="14.42" width="9.8" height="9.81"/><rect x="43.97" y="92.85" width="9.8" height="9.81"/><rect x="34.17" y="92.85" width="9.8" height="9.81"/><rect x="34.17" y="83.05" width="9.8" height="9.8"/><rect x="24.36" y="83.05" width="9.81" height="9.8"/><rect x="24.36" y="73.25" width="9.81" height="9.8"/><rect x="14.56" y="73.25" width="9.8" height="9.8"/><rect x="14.56" y="63.44" width="9.8" height="9.81"/><rect x="4.75" y="63.44" width="9.81" height="9.81"/><rect x="4.75" y="34.03" width="9.81" height="9.8"/><rect x="4.75" y="43.83" width="9.81" height="9.81"/><rect x="4.75" y="24.23" width="9.81" height="9.8"/><rect x="4.75" y="53.64" width="9.81" height="9.8"/><rect x="14.56" y="14.42" width="9.8" height="9.81"/><rect x="24.36" y="4.62" width="9.81" height="9.8"/><rect x="34.17" y="4.62" width="9.8" height="9.8"/><rect x="43.97" y="4.62" width="9.8" height="9.8"/><rect x="53.77" y="4.62" width="9.81" height="9.8"/><rect x="63.58" y="4.62" width="9.8" height="9.8"/></svg>