<svg id="Layer_1" data-name="Layer 1" xmlns="http://www.w3.org/2000/svg" viewBox="0 0 156 144"><defs><style>.cls-1{fill:#ed1e79;}</style></defs><title>Artboard 4</title><rect x="63.58" y="120.99" width="9.8" height="9.8"/><rect x="53.77" y="111.19" width="9.81" height="9.8"/><rect x="43.97" y="101.38" width="9.8" height="9.81"/><rect x="34.17" y="91.58" width="9.8" height="9.8"/><rect x="24.36" y="81.77" width="9.81" height="9.81"/><rect x="14.56" y="71.97" width="9.8" height="9.8"/><rect x="4.75" y="62.17" width="9.81" height="9.8"/><rect x="142.01" y="62.17" width="9.8" height="9.8"/><rect x="142.01" y="52.36" width="9.8" height="9.81"/><rect x="142.01" y="42.56" width="9.8" height="9.8"/><rect x="142.01" y="32.75" width="9.8" height="9.81"/><rect x="142.01" y="22.95" width="9.8" height="9.8"/><rect x="132.21" y="71.97" width="9.8" height="9.8"/><rect x="132.21" y="62.17" width="9.8" height="9.8"/><rect class="cls-1" x="132.21" y="52.36" width="9.8" height="9.81"/><rect class="cls-1" x="132.21" y="42.56" width="9.8" height="9.8"/><rect class="cls-1" x="132.21" y="32.75" width="9.8" height="9.81"/><rect class="cls-1" x="132.21" y="22.95" width="9.8" height="9.8"/><rect x="132.21" y="13.15" width="9.8" height="9.8"/><rect x="122.4" y="81.77" width="9.81" height="9.81"/><rect x="122.4" y="71.97" width="9.81" height="9.8"/><rect class="cls-1" x="122.4" y="62.17" width="9.81" height="9.8"/><rect class="cls-1" x="122.4" y="52.36" width="9.81" height="9.81"/><rect class="cls-1" x="122.4" y="42.56" width="9.81" height="9.8"/><rect class="cls-1" x="122.4" y="32.75" width="9.81" height="9.81"/><rect class="cls-1" x="122.4" y="22.95" width="9.81" height="9.8"/><rect class="cls-1" x="122.4" y="13.15" width="9.81" height="9.8"/><rect x="122.4" y="3.34" width="9.81" height="9.81"/><rect x="112.6" y="91.58" width="9.8" height="9.8"/><rect x="112.6" y="81.77" width="9.8" height="9.81"/><rect class="cls-1" x="112.6" y="71.97" width="9.8" height="9.8"/><rect class="cls-1" x="112.6" y="62.17" width="9.8" height="9.8"/><rect class="cls-1" x="112.6" y="52.36" width="9.8" height="9.81"/><rect class="cls-1" x="112.6" y="22.95" width="9.8" height="9.8"/><rect class="cls-1" x="112.6" y="13.15" width="9.8" height="9.8"/><rect x="112.6" y="3.34" width="9.8" height="9.81"/><rect x="102.79" y="101.38" width="9.81" height="9.81"/><rect x="102.79" y="91.58" width="9.81" height="9.8"/><rect class="cls-1" x="102.79" y="81.77" width="9.81" height="9.81"/><rect class="cls-1" x="102.79" y="71.97" width="9.81" height="9.8"/><rect class="cls-1" x="102.79" y="62.17" width="9.81" height="9.8"/><rect class="cls-1" x="102.79" y="32.75" width="9.81" height="9.81"/><rect class="cls-1" x="102.79" y="22.95" width="9.81" height="9.8"/><rect class="cls-1" x="102.79" y="13.15" width="9.81" height="9.8"/><rect x="102.79" y="3.34" width="9.81" height="9.81"/><rect x="92.99" y="111.19" width="9.8" height="9.8"/><rect x="92.99" y="101.38" width="9.8" height="9.81"/><rect class="cls-1" x="92.99" y="91.58" width="9.8" height="9.8"/><rect class="cls-1" x="92.99" y="81.77" width="9.8" height="9.81"/><rect class="cls-1" x="92.99" y="71.97" width="9.8" height="9.8"/><rect class="cls-1" x="92.99" y="62.17" width="9.8" height="9.8"/><rect class="cls-1" x="92.99" y="42.56" width="9.8" height="9.8"/><rect class="cls-1" x="92.99" y="32.75" width="9.8" height="9.81"/><rect class="cls-1" x="92.99" y="22.95" width="9.8" height="9.8"/><rect class="cls-1" x="92.99" y="13.15" width="9.8" height="9.8"/><rect x="92.99" y="3.34" width="9.8" height="9.81"/><rect x="83.19" y="120.99" width="9.8" height="9.8"/><rect x="83.19" y="111.19" width="9.8" height="9.8"/><rect class="cls-1" x="83.19" y="101.38" width="9.8" height="9.81"/><rect class="cls-1" x="83.19" y="91.58" width="9.8" height="9.8"/><rect class="cls-1" x="83.19" y="81.77" width="9.8" height="9.81"/><rect class="cls-1" x="83.19" y="71.97" width="9.8" height="9.8"/><rect class="cls-1" x="83.19" y="62.17" width="9.8" height="9.8"/><rect class="cls-1" x="83.19" y="52.36" width="9.8" height="9.81"/><rect class="cls-1" x="83.19" y="42.56" width="9.8" height="9.8"/><rect class="cls-1" x="83.19" y="32.75" width="9.8" height="9.81"/><rect class="cls-1" x="83.19" y="22.95" width="9.8" height="9.8"/><rect x="83.19" y="13.15" width="9.8" height="9.8"/><rect x="83.19" y="3.34" width="9.8" height="9.81"/><rect x="73.38" y="130.79" width="9.81" height="9.81"/><rect x="73.38" y="120.99" width="9.81" height="9.8"/><rect class="cls-1" x="73.38" y="111.19" width="9.81" height="9.8"/><rect class="cls-1" x="73.38" y="101.38" width="9.81" height="9.81"/><rect class="cls-1" x="73.38" y="91.58" width="9.81" height="9.8"/><rect class="cls-1" x="73.38" y="81.77" width="9.81" height="9.81"/><rect class="cls-1" x="73.38" y="71.97" width="9.81" height="9.8"/><rect class="cls-1" x="73.38" y="62.17" width="9.81" height="9.8"/><rect class="cls-1" x="73.38" y="52.36" width="9.81" height="9.81"/><rect class="cls-1" x="73.38" y="42.56" width="9.81" height="9.8"/><rect class="cls-1" x="73.38" y="32.75" width="9.81" height="9.81"/><rect x="73.38" y="22.95" width="9.81" height="9.8"/><rect x="73.38" y="13.15" width="9.81" height="9.8"/><rect x="63.58" y="111.19" width="9.8" height="9.8"/><rect class="cls-1" x="63.58" y="101.38" width="9.8" height="9.81"/><rect class="cls-1" x="63.58" y="91.58" width="9.8" height="9.8"/><rect class="cls-1" x="63.58" y="81.77" width="9.8" height="9.81"/><rect class="cls-1" x="63.58" y="71.97" width="9.8" height="9.8"/><rect class="cls-1" x="63.58" y="62.17" width="9.8" height="9.8"/><rect class="cls-1" x="63.58" y="52.36" width="9.8" height="9.81"/><rect class="cls-1" x="63.58" y="42.56" width="9.8" height="9.8"/><rect class="cls-1" x="63.58" y="32.75" width="9.8" height="9.81"/><rect class="cls-1" x="63.58" y="22.95" width="9.8" height="9.8"/><rect x="63.58" y="13.15" width="9.8" height="9.8"/><rect x="63.58" y="3.34" width="9.8" height="9.81"/><rect x="53.77" y="101.38" width="9.81" height="9.81"/><rect class="cls-1" x="53.77" y="91.58" width="9.81" height="9.8"/><rect class="cls-1" x="53.77" y="81.77" width="9.81" height="9.81"/><rect class="cls-1" x="53.77" y="71.97" width="9.81" height="9.8"/><rect class="cls-1" x="53.77" y="62.17" width="9.81" height="9.8"/><rect class="cls-1" x="53.77" y="52.36" width="9.81" height="9.81"/><rect class="cls-1" x="53.77" y="42.56" width="9.81" height="9.8"/><rect class="cls-1" x="53.77" y="32.75" width="9.81" height="9.81"/><rect class="cls-1" x="53.77" y="22.95" width="9.81" height="9.8"/><rect class="cls-1" x="53.77" y="13.15" width="9.81" height="9.8"/><rect x="53.77" y="3.34" width="9.81" height="9.81"/><rect x="43.97" y="91.58" width="9.8" height="9.8"/><rect class="cls-1" x="43.97" y="81.77" width="9.8" height="9.81"/><rect class="cls-1" x="43.97" y="71.97" width="9.8" height="9.8"/><rect class="cls-1" x="43.97" y="62.17" width="9.8" height="9.8"/><rect class="cls-1" x="43.97" y="52.36" width="9.8" height="9.81"/><rect class="cls-1" x="43.97" y="42.56" width="9.8" height="9.8"/><rect class="cls-1" x="43.97" y="32.75" width="9.8" height="9.81"/><rect class="cls-1" x="43.97" y="22.95" width="9.8" height="9.8"/><rect class="cls-1" x="43.97" y="13.15" width="9.8" height="9.8"/><rect x="43.97" y="3.34" width="9.8" height="9.81"/><rect x="34.17" y="81.77" width="9.8" height="9.81"/><rect class="cls-1" x="34.17" y="71.97" width="9.8" height="9.8"/><rect class="cls-1" x="34.17" y="62.17" width="9.8" height="9.8"/><rect class="cls-1" x="34.17" y="52.36" width="9.8" height="9.81"/><rect class="cls-1" x="34.17" y="42.56" width="9.8" height="9.8"/><rect class="cls-1" x="34.17" y="32.75" width="9.8" height="9.81"/><rect class="cls-1" x="34.17" y="22.95" width="9.8" height="9.8"/><rect class="cls-1" x="34.17" y="13.15" width="9.8" height="9.8"/><rect x="34.17" y="3.34" width="9.8" height="9.81"/><rect x="24.36" y="71.97" width="9.81" height="9.8"/><rect class="cls-1" x="24.36" y="62.17" width="9.81" height="9.8"/><rect class="cls-1" x="24.36" y="52.36" width="9.81" height="9.81"/><rect class="cls-1" x="24.36" y="42.56" width="9.81" height="9.8"/><rect class="cls-1" x="24.36" y="32.75" width="9.81" height="9.81"/><rect class="cls-1" x="24.36" y="22.95" width="9.81" height="9.8"/><rect class="cls-1" x="24.36" y="13.15" width="9.81" height="9.8"/><rect x="24.36" y="3.34" width="9.81" height="9.81"/><rect x="14.56" y="62.17" width="9.8" height="9.8"/><rect class="cls-1" x="14.56" y="52.36" width="9.8" height="9.81"/><rect class="cls-1" x="14.56" y="42.56" width="9.8" height="9.8"/><rect class="cls-1" x="14.56" y="32.75" width="9.8" height="9.81"/><rect class="cls-1" x="14.56" y="22.95" width="9.8" height="9.8"/><rect x="14.56" y="13.15" width="9.8" height="9.8"/><rect x="4.75" y="52.36" width="9.81" height="9.81"/><rect x="4.75" y="42.56" width="9.81" height="9.8"/><rect x="4.75" y="32.75" width="9.81" height="9.81"/><rect x="4.75" y="22.95" width="9.81" height="9.8"/></svg>