<svg id="Layer_1" data-name="Layer 1" xmlns="http://www.w3.org/2000/svg" viewBox="0 0 333.33 323.53"><defs><style>.cls-1{fill:#36220e;}.cls-2{fill:#6c3116;}</style></defs><title>Artboard 1</title><path class="cls-1" d="M323.52,98V78.43h-9.8v-9.8h-9.8V88.24h9.8v19.61h9.8v19.6h-19.6v9.81H284.31v-9.81h19.61v-9.8H274.51v-9.8H264.7V78.43h-9.8V49h19.61v9.81h19.6V49h-9.8v-9.8H264.7V29.41H235.29v-9.8H205.88V9.81H186.27V0H107.84V9.81H88.23v9.8H68.62v9.8H98v-9.8h19.61V9.81h29.41V49h-9.8V68.63h-9.8v9.8h-9.81v9.81H78.43V78.43H58.82v-9.8H49V39.22h-9.8V49h-9.8V68.63H19.6V98h9.81V78.43H49v9.81H68.62V98h58.83v-9.8h9.8V78.43h9.8V58.83h9.81v-49h19.61v9.8h19.6v9.8h29.42v9.81h19.6V49h-9.8V68.63h-9.8V98h9.8v19.61h9.8v9.8H264.7v9.81h9.81v9.8h39.21v-9.8h9.8v29.41h-9.8v29.41h9.8V176.47h9.81V98Zm-78.43,0v-9.8h-9.8V78.43h9.8v9.81h9.81v19.61h-9.81Z"/><path class="cls-2" d="M313.72,176.47v-9.8h9.8V137.26h-9.8v9.8H274.51v-9.8H264.7v-9.81H245.09v-9.8h-9.8V98h-9.8V68.63h9.8V49h9.8v-9.8h-19.6V29.41H196.07v-9.8h-19.6V9.81H156.86v49h-9.81v19.6h-9.8v9.81h-9.8V98H68.62v-9.8H49V78.43H29.41V98H19.6V205.89h9.81V186.28h9.8v-9.81H58.82v-9.8H98v9.8h19.61v9.81h9.81v9.8h9.8v29.41h9.8v39.22h-9.8v9.8h-9.8v9.81H98v19.6H205.88v-9.8h19.61v-9.8h-9.81v-49h9.81V215.69h9.8v-9.8h9.8v-9.81h49v9.81h19.61V176.47Zm-9.8,0h-9.81v-9.8h9.81Zm-78.43,19.61h-9.81v9.81h-9.8v-9.81H176.47v-9.8h-9.81v-9.81h-9.8v-9.8h-9.81V147.06h19.61v-9.8h19.61v-9.81h39.22v9.81h9.8v9.8H215.68v9.81h9.81v39.21Zm-58.83,78.43h9.81v9.81h-9.81ZM39.21,117.65H49v9.8h-9.8ZM215.68,58.83h-9.8V49h9.8ZM176.47,88.24h9.8V98h-9.8Zm-58.83,49h9.81v9.8h-9.81Zm156.87,29.41H264.7v-9.8h9.81Zm-68.63,88.24h-9.81V245.1h9.81Z"/><path d="M303.92,245.1v-9.8h-9.81V215.69h-9.8v9.8H264.7v9.81H245.09v19.61h-9.8v29.41H254.9v-9.81h29.41v-9.8h19.61V245.1Zm-49,19.61v-9.8h9.8v9.8Zm29.41-9.8V245.1h9.8v9.81Z"/><path class="cls-1" d="M294.11,205.89v-9.81h-49v9.81h-9.8v9.8h-9.8V235.3h-9.81v49h9.81v9.8H205.88v9.8H98v9.81h39.22v9.8h19.61v-9.8h58.82v-9.81h19.61v-9.8H254.9v-9.8H235.29V254.91h9.8V235.3H264.7v-9.81h19.61v-9.8h9.8V235.3h9.81v29.41h9.8V225.49h-9.8v-9.8h9.8v-9.8H294.11Zm-29.41,9.8h-9.8v9.8h-9.81v-9.8h9.81v-9.8h19.61v9.8Z"/><rect x="294.11" y="166.67" width="9.81" height="9.8"/><rect class="cls-1" x="294.11" y="58.83" width="9.81" height="9.8"/><polygon class="cls-1" points="284.31 264.71 284.31 274.51 274.51 274.51 264.7 274.51 254.9 274.51 254.9 284.32 264.7 284.32 274.51 284.32 284.31 284.32 294.11 284.32 294.11 274.51 303.92 274.51 303.92 264.71 294.11 264.71 284.31 264.71"/><rect class="cls-1" x="284.31" y="245.1" width="9.8" height="9.81"/><polygon class="cls-2" points="284.31 127.45 284.31 137.26 294.11 137.26 303.92 137.26 303.92 127.45 294.11 127.45 284.31 127.45"/><rect class="cls-1" x="284.31" y="88.24" width="9.8" height="9.8"/><path d="M274.51,58.83V49H254.9V78.43h9.8v29.42h9.81v9.8h29.41v9.8h19.6v-19.6h-9.8V88.24h-9.8V68.63h-9.81v-9.8h-19.6ZM294.11,98h-9.8v-9.8h9.8Z"/><polygon class="cls-2" points="264.7 205.89 254.9 205.89 254.9 215.69 264.7 215.69 274.51 215.69 274.51 205.89 264.7 205.89"/><rect x="264.7" y="156.87" width="9.81" height="9.8"/><rect class="cls-1" x="254.9" y="254.91" width="9.8" height="9.8"/><rect class="cls-2" x="245.09" y="215.69" width="9.81" height="9.8"/><polygon class="cls-2" points="254.9 98.04 254.9 88.24 245.09 88.24 245.09 98.04 245.09 107.85 254.9 107.85 254.9 98.04"/><rect class="cls-2" x="235.29" y="78.43" width="9.8" height="9.81"/><polygon class="cls-1" points="215.68 176.47 215.68 186.28 215.68 196.08 225.49 196.08 225.49 186.28 225.49 176.47 215.68 176.47"/><rect class="cls-1" x="205.88" y="196.08" width="9.8" height="9.81"/><path d="M215.68,176.47h9.81v-19.6h-9.81v-9.81H176.47v9.81h-9.81v9.8h-9.8v9.8h9.8v9.81h9.81v9.8h39.21V176.47Zm-39.21-9.8h9.8v9.8h-9.8Z"/><polygon class="cls-2" points="205.88 137.26 196.07 137.26 196.07 147.06 205.88 147.06 215.68 147.06 215.68 137.26 205.88 137.26"/><rect x="205.88" y="49.02" width="9.8" height="9.81"/><rect x="196.07" y="245.1" width="9.81" height="9.81"/><rect class="cls-1" x="176.47" y="166.67" width="9.8" height="9.8"/><polygon class="cls-1" points="186.27 147.06 196.07 147.06 196.07 137.26 205.88 137.26 215.68 137.26 215.68 147.06 225.49 147.06 235.29 147.06 235.29 137.26 225.49 137.26 225.49 127.45 215.68 127.45 205.88 127.45 196.07 127.45 186.27 127.45 186.27 137.26 176.47 137.26 166.66 137.26 166.66 147.06 176.47 147.06 186.27 147.06"/><rect x="176.47" y="88.24" width="9.8" height="9.8"/><rect x="166.66" y="274.51" width="9.81" height="9.81"/><rect class="cls-2" x="166.66" y="147.06" width="9.81" height="9.81"/><rect class="cls-2" x="156.86" y="156.87" width="9.8" height="9.8"/><polygon class="cls-1" points="166.66 156.87 166.66 147.06 156.86 147.06 147.05 147.06 147.05 156.87 147.05 166.67 156.86 166.67 156.86 156.87 166.66 156.87"/><rect x="117.64" y="137.26" width="9.81" height="9.8"/><path d="M117.64,274.51v-9.8h9.81V225.49h-9.81v-19.6h-9.8v-9.81H88.23v-9.8H49v9.8h-9.8v19.61h-9.8v39.22h9.8v9.8H49v9.8h9.81v9.81h49v-9.81ZM58.82,215.69h9.8v9.8h-9.8Zm49,19.61H98v-9.81h9.81ZM78.43,274.51v-9.8h9.8v9.8Z"/><rect class="cls-1" x="107.84" y="29.41" width="9.8" height="9.81"/><rect class="cls-1" x="98.03" y="225.49" width="9.81" height="9.81"/><polygon class="cls-1" points="98.03 284.32 88.23 284.32 78.43 284.32 68.62 284.32 58.82 284.32 58.82 274.51 49.01 274.51 49.01 264.71 39.21 264.71 39.21 254.91 29.41 254.91 29.41 245.1 29.41 235.3 29.41 225.49 29.41 215.69 39.21 215.69 39.21 205.89 39.21 196.08 49.01 196.08 49.01 186.28 58.82 186.28 68.62 186.28 78.43 186.28 88.23 186.28 88.23 196.08 98.03 196.08 107.84 196.08 107.84 205.89 117.64 205.89 117.64 215.69 117.64 225.49 127.45 225.49 127.45 235.3 127.45 245.1 127.45 254.91 127.45 264.71 117.64 264.71 117.64 274.51 107.84 274.51 107.84 284.32 117.64 284.32 127.45 284.32 127.45 274.51 137.25 274.51 137.25 264.71 147.05 264.71 147.05 254.91 147.05 245.1 147.05 235.3 147.05 225.49 137.25 225.49 137.25 215.69 137.25 205.89 137.25 196.08 127.45 196.08 127.45 186.28 117.64 186.28 117.64 176.47 107.84 176.47 98.03 176.47 98.03 166.67 88.23 166.67 78.43 166.67 68.62 166.67 58.82 166.67 58.82 176.47 49.01 176.47 39.21 176.47 39.21 186.28 29.41 186.28 29.41 196.08 29.41 205.89 19.6 205.89 19.6 196.08 19.6 186.28 19.6 176.47 19.6 166.67 19.6 156.87 19.6 147.06 19.6 137.26 19.6 127.45 19.6 117.65 19.6 107.85 19.6 98.04 9.8 98.04 9.8 107.85 9.8 117.65 9.8 127.45 9.8 137.26 9.8 147.06 9.8 156.87 9.8 166.67 0 166.67 0 176.47 0 186.28 9.8 186.28 9.8 196.08 9.8 205.89 9.8 215.69 9.8 225.49 9.8 235.3 9.8 245.1 19.6 245.1 19.6 254.91 19.6 264.71 29.41 264.71 29.41 274.51 39.21 274.51 39.21 284.32 49.01 284.32 49.01 294.12 58.82 294.12 68.62 294.12 68.62 303.92 78.43 303.92 88.23 303.92 98.03 303.92 98.03 294.12 98.03 284.32"/><rect class="cls-1" x="88.23" y="68.63" width="9.8" height="9.8"/><rect class="cls-1" x="78.43" y="264.71" width="9.8" height="9.8"/><rect class="cls-1" x="68.62" y="49.02" width="9.81" height="9.81"/><rect class="cls-1" x="58.82" y="215.69" width="9.8" height="9.8"/><polygon class="cls-1" points="68.62 39.22 68.62 29.41 58.82 29.41 49.01 29.41 49.01 39.22 58.82 39.22 68.62 39.22"/><path d="M49,58.83v9.8h9.81v9.8H78.43v9.81h39.21V78.43h9.81v-9.8h9.8V49h9.8V9.81H117.64v9.8H98v9.8H68.62v9.81H49V58.83Zm39.22,19.6v-9.8H98v9.8Zm29.41-49v9.81h-9.8V29.41ZM78.43,49v9.81H68.62V49Z"/><rect x="39.21" y="117.65" width="9.8" height="9.8"/></svg>